<svg width="1245" height="788" viewBox="0 0 1245 788" fill="none" xmlns="http://www.w3.org/2000/svg">
<path fill-rule="evenodd" clip-rule="evenodd" d="M793.413 1.07653C786.18 1.87296 768.743 4.61174 754.662 7.16341C731.293 11.3976 726.107 11.8028 695.169 11.8028H661.276L646.829 6.87267L632.383 1.94255L618.914 5.1994C611.505 6.99175 597.899 10.0089 588.678 11.9064C574.306 14.8632 570.331 16.3927 560.831 22.6172C554.735 26.6102 546.268 31.1444 542.014 32.6924C530.695 36.8122 525.776 41.0309 516.501 54.5718C511.931 61.2432 506.659 68.5719 504.787 70.856C502.915 73.1417 497.498 82.6014 492.75 91.8771C482.39 112.125 477.424 117.355 464.471 121.664C456.216 124.41 453.501 126.32 446.705 134.162C442.293 139.253 435.996 144.789 432.712 146.464C427.249 149.251 426.358 149.311 422.244 147.185C413.602 142.719 411.286 137.932 411.286 124.546C411.286 114.38 410.785 111.977 408.149 109.522C404.058 105.712 394.931 103.044 385.984 103.044C379.554 103.044 377.928 103.851 369.919 111.021C360.409 119.531 357.32 124.452 357.208 131.267C357.17 133.607 356.435 135.52 355.575 135.52C352.501 135.52 285.431 91.9915 283.35 88.6465C282.72 87.6336 281.134 81.5869 279.826 75.2078L277.446 63.6093L270.294 63.1454C258.037 62.3505 255.196 69.5972 262.832 82.1839C264.386 84.7448 266.151 90.5657 266.756 95.117C267.489 100.642 269.581 105.959 273.046 111.107C278.428 119.103 279.335 122.288 276.691 123.921C274.306 125.395 274.847 132.744 278.116 143.244C281.713 154.797 284.595 158.227 292.487 160.35C298.892 162.074 299.187 163.525 294.905 172.234C291.048 180.08 301.005 189.363 321.924 197.428C337.53 203.444 341.677 206.155 341.636 210.315C341.617 212.13 339.499 219.531 336.929 226.761C328.758 249.754 326.16 261.122 325.446 277.021C324.482 298.443 317.388 322.753 305.59 345.062C300.012 355.612 283.18 373.103 272.694 379.246C266.405 382.929 264.622 383.269 256.086 382.408C249.432 381.737 242.622 379.524 233.698 375.133C221.609 369.187 219.894 367.68 203.84 348.905C194.472 337.95 185.399 328.54 183.678 327.994C175.985 325.554 171.49 336.8 171.49 358.492C171.49 374.748 173.274 386.865 177.708 400.738C179.339 405.842 181.418 417.672 182.328 427.028C183.237 436.384 184.359 445.431 184.82 447.132C185.282 448.833 185.972 451.36 186.356 452.749C186.74 454.136 185.986 455.681 184.684 456.18C181.277 457.487 155.752 452.834 142.364 448.465C124.518 442.641 94.7417 428.629 85.679 421.79C74.4488 413.314 59.8197 396.659 52.1988 383.673C36.674 357.219 31.171 343.55 25.45 317.229C17.8152 282.111 15.4791 276.528 9.24595 278.504C3.95961 280.182 0.978404 291.979 0.156909 314.472C-1.77848 367.46 14.2909 427.52 42.7725 473.745C48.9407 483.755 53.995 494.567 57.6863 505.646C60.7572 514.864 64.58 524.972 66.1812 528.11C72.7501 540.979 84.3005 553.722 103.995 569.825C116.122 579.743 126.393 589.523 129.49 594.105L134.676 601.778L133.68 615.697C133.132 623.352 131.248 636.885 129.495 645.771C125.603 665.502 126.177 670.905 134.535 693.198C144.219 719.02 147.019 720.984 176.34 722.531C188.326 723.163 200.878 724.916 209.949 727.224C244.826 736.098 274.678 729.499 319.236 703.069C326.043 699.031 343.795 689.116 358.686 681.036C417.307 649.229 455.701 624.579 472.505 607.964C484.969 595.642 501.931 572.38 512.539 553.065C522.225 535.427 522.419 535.259 529.555 538.239C532.728 539.564 537.979 542.75 541.223 545.319C553.01 554.651 574.222 566.983 578.487 566.983C583.516 566.983 590.757 561.328 595.451 553.736C597.283 550.773 600.793 547.31 603.251 546.039C607.108 544.046 608.419 544.021 612.772 545.863C619.517 548.716 622.327 552.268 625.466 561.911C627.096 566.921 629.931 571.53 632.934 574.055C637.347 577.768 638.46 578.015 645.589 576.871C661.427 574.33 666.225 575.226 693.31 585.769C707.6 591.334 719.932 596.525 720.714 597.308C721.496 598.089 723.942 604.958 726.149 612.571C728.355 620.184 737.525 641.747 746.526 660.49C766.764 702.637 769.688 710.888 773.37 736.236C776.95 760.874 782.196 782.88 785.209 785.891C787.127 787.809 806.184 788.106 919.222 787.973C991.701 787.888 1052.74 787.287 1054.87 786.64C1058.5 785.532 1058.55 785.388 1055.64 784.298C1030.94 775.022 1000.53 756.221 998.186 748.771C997.635 747.027 994.404 742.468 991.003 738.64C983.209 729.867 979.256 721.104 977.233 708.116C976.359 702.501 974.335 695.397 972.735 692.328C968.798 684.779 967.149 650.542 970.124 638.12C972.656 627.542 974.522 627.077 991.607 632.763C1014.23 640.295 1086.1 651.961 1133.77 655.841C1150.36 657.191 1170.55 658.996 1178.63 659.853C1215.16 663.72 1243.95 665.324 1244.64 663.529C1245.02 662.547 1245.11 523.196 1244.85 353.86C1244.5 123.7 1243.93 45.5281 1242.6 44.1935C1241.25 42.8434 1236.15 43.1929 1221.71 45.6224C1155.61 56.7446 1042.96 57.2363 996.712 46.6029C983.933 43.6661 972.042 39.0422 941.932 25.305C916.032 13.4884 899.447 7.71085 878.502 3.20755C864.538 0.204322 813.037 -1.08543 793.413 1.07653Z" fill="url(#paint0_linear_233_121)" fill-opacity="0.49"/>
<defs>
<linearGradient id="paint0_linear_233_121" x1="1178.98" y1="296.169" x2="211.196" y2="307.778" gradientUnits="userSpaceOnUse">
<stop stop-color="#070209"/>
<stop offset="0.833333" stop-color="#671A5F"/>
<stop offset="1" stop-color="#7B1E70"/>
</linearGradient>
</defs>
</svg>
